<?xml version="1.0" standalone="no"?>
<!DOCTYPE svg PUBLIC "-//W3C//DTD SVG 20010904//EN"
 "http://www.w3.org/TR/2001/REC-SVG-20010904/DTD/svg10.dtd">
<svg version="1.0" xmlns="http://www.w3.org/2000/svg"
 width="493.000000pt" height="493.000000pt" viewBox="0 0 493.000000 493.000000"
 preserveAspectRatio="xMidYMid meet">
<metadata>
Created by potrace 1.14, written by Peter Selinger 2001-2017
</metadata>
<g transform="translate(0.000000,493.000000) scale(0.100000,-0.100000)"
fill="#000000" stroke="none">
<path d="M933 4641 c-60 -28 -96 -86 -101 -166 -5 -79 18 -135 85 -206 51 -54
128 -138 187 -204 20 -21 36 -43 36 -47 0 -4 16 -18 35 -31 20 -14 49 -45 65
-71 16 -25 34 -46 38 -46 5 0 22 -19 37 -42 37 -56 170 -216 207 -248 15 -14
37 -42 47 -63 18 -35 18 -41 5 -72 -22 -55 -17 -125 16 -217 17 -46 39 -114
50 -153 27 -99 64 -220 88 -290 11 -33 26 -98 33 -145 6 -47 22 -116 34 -155
12 -38 26 -92 29 -120 4 -27 13 -70 21 -95 36 -118 42 -147 68 -326 8 -56 20
-110 26 -122 6 -11 11 -34 11 -51 0 -17 11 -61 26 -98 14 -38 30 -88 35 -113
24 -110 100 -165 218 -158 97 5 138 34 184 130 l36 73 6 180 c3 99 10 234 15
300 5 66 9 129 9 140 1 18 3 17 18 -5 22 -32 112 -141 133 -160 9 -8 26 -35
38 -60 12 -25 48 -77 79 -116 32 -40 77 -96 100 -125 l43 -54 0 -137 0 -138
-27 0 c-16 0 -47 -9 -70 -19 -127 -58 -140 -270 -21 -349 37 -24 52 -27 192
-35 101 -5 163 -5 187 2 19 6 94 14 166 17 l131 7 69 -69 c38 -38 83 -89 100
-114 17 -25 46 -61 64 -80 18 -19 47 -61 66 -92 19 -32 43 -62 53 -68 11 -6
35 -34 54 -63 19 -29 78 -110 130 -182 53 -71 113 -155 135 -186 54 -76 108
-103 195 -97 117 7 186 82 186 201 0 73 -10 96 -78 185 -31 40 -85 115 -120
165 -35 51 -73 103 -86 117 -13 14 -33 42 -46 63 -12 21 -33 45 -47 54 -13 9
-32 32 -43 52 -10 20 -45 69 -79 109 -34 40 -61 74 -61 75 0 5 287 -4 455 -14
99 -5 196 -7 215 -4 96 17 155 101 148 209 -7 116 -71 177 -198 190 -44 5
-301 15 -382 16 -17 0 -18 24 -18 354 0 210 -4 365 -10 381 -5 14 -12 119 -15
233 -3 114 -12 299 -21 412 -20 270 -33 522 -36 696 -3 135 -4 142 -31 183
-72 109 -262 109 -334 0 -27 -41 -28 -47 -31 -188 -2 -136 10 -403 29 -651 4
-58 13 -217 19 -355 6 -137 13 -284 16 -325 8 -138 15 -784 9 -856 l-6 -71
-30 30 c-16 16 -36 44 -44 63 -15 36 -119 151 -144 159 -9 3 -25 20 -35 40
-10 19 -52 69 -93 112 -120 126 -112 100 -113 389 0 137 4 335 10 439 10 195
31 762 27 774 -1 3 12 26 28 50 27 40 30 53 30 121 0 67 -3 82 -28 119 -48 72
-79 81 -307 81 -170 0 -200 -3 -237 -19 -126 -58 -140 -270 -22 -348 21 -14
59 -28 84 -31 l45 -5 0 -156 c0 -86 -5 -241 -10 -346 -6 -104 -13 -240 -16
-302 l-6 -112 -26 31 c-14 17 -40 52 -57 79 -56 89 -177 249 -195 259 -34 18
-34 55 -1 220 6 30 15 102 21 160 5 58 15 148 22 200 7 52 12 134 13 181 0 77
-3 90 -28 128 -71 107 -262 109 -332 3 -26 -39 -42 -119 -60 -297 -7 -69 -8
-70 -24 -45 -8 14 -28 38 -43 53 -16 16 -28 32 -28 35 0 19 -221 323 -269 370
-19 18 -41 48 -51 66 -9 19 -50 74 -91 122 -42 49 -89 109 -106 134 -34 49
-107 120 -123 120 -5 0 -16 13 -25 29 -15 30 -134 173 -188 226 -16 17 -54 60
-84 97 -61 75 -104 98 -186 98 -29 0 -70 -9 -94 -19z"/>
<path d="M363 3651 c-26 -12 -53 -36 -70 -62 -25 -37 -28 -52 -28 -119 0 -66
4 -82 27 -117 16 -24 43 -48 67 -59 l40 -19 1 -100 c5 -473 -4 -764 -36 -1115
-4 -41 -7 -149 -8 -240 -1 -155 0 -168 23 -213 15 -30 38 -58 64 -75 l41 -27
215 -2 c189 -1 304 -6 641 -29 69 -4 79 -2 124 23 71 40 99 95 94 184 -5 89
-38 141 -111 174 -47 21 -76 24 -292 33 -132 6 -253 10 -270 9 -16 -1 -54 0
-84 1 l-53 2 6 43 c4 23 10 105 15 182 5 77 10 145 10 150 1 6 32 10 73 10 71
0 192 12 412 40 129 17 172 39 206 110 31 65 26 155 -14 215 -40 61 -96 83
-195 77 -70 -4 -116 -9 -364 -38 -49 -6 -90 -9 -93 -7 -5 6 -7 588 -1 594 2 2
21 -3 43 -13 32 -14 81 -18 276 -21 229 -4 239 -3 283 18 29 14 57 38 73 63
23 35 27 51 27 117 0 67 -3 82 -28 119 -48 72 -73 78 -357 84 -135 2 -255 1
-267 -4 -14 -5 -34 -3 -55 5 -21 9 -98 16 -213 20 -166 6 -183 5 -222 -13z"/>
</g>
</svg>
